<svg enable-background="new 0 0 128 128" viewBox="0 0 128 128" xmlns="http://www.w3.org/2000/svg"><g fill="#191919"><path d="m28.9 43.6 9.5 5.5 1.8-3.2-9.5-5.5zm23.6-7-5.5-9.5-3.2 1.8 5.5 9.5zm35-5.8-3.2-1.8-5.5 9.5 3.2 1.8zm-19.8-7.2h-3.7v10.9h3.7zm-44.1 40.1h11v-3.7h-11zm69.8 0v3.6h11v-3.6zm-29.4-50.2c-27.9 0-50.5 22.6-50.5 50.5s22.6 50.5 50.5 50.5 50.5-22.6 50.5-50.5-22.6-50.5-50.5-50.5zm0 97.1c-25.8 0-46.6-20.9-46.6-46.6 0-25.8 20.9-46.6 46.6-46.6 25.8 0 46.6 20.9 46.6 46.6 0 25.8-20.8 46.6-46.6 46.6zm35-66.9-9.5 5.5 1.8 3.2 9.5-5.5zm-14.8 50.6h-6.7v-6.7h-3.4v6.7h-6.7v-6.7h-3.4v6.7h-6.7v-6.7h-3.4v6.7h-6.7v-6.7h-3.4v10.1h43.8v-10.1h-3.4z"/><path d="m64 0c-35.3 0-64 28.7-64 64s28.7 64 64 64 64-28.7 64-64-28.7-64-64-64zm0 121.3c-31.7 0-57.3-25.6-57.3-57.3s25.6-57.3 57.3-57.3 57.3 25.7 57.3 57.3c0 31.7-25.6 57.3-57.3 57.3zm12-79.4-9.6 15.6c-.8-.2-1.5-.3-2.4-.3-5.6 0-10.1 4.5-10.1 10.1 0 2.5.9 4.8 2.4 6.5l-3.3 5.4 5.7 3.5 3.3-5.4c.6.1 1.3.2 1.9.2 5.6 0 10.1-4.5 10.1-10.1 0-2.3-.8-4.4-2.1-6.2l9.7-15.8z"/></g></svg>