<svg xmlns="http://www.w3.org/2000/svg" viewBox="0 0 64 64"><defs><style>.cls-6{fill:none;stroke:#000;stroke-width:2px;stroke-linecap:round;stroke-linejoin:round}.cls-11{mix-blend-mode:overlay;fill:#fff}</style></defs><g style="isolation:isolate"><g id="Layer_1" data-name="Layer 1"><g id="Vector"><path d="M27.18 55.3a8.13 8.13 0 1 1-10.77-12.17 2.16 2.16 0 0 0 .8-1.69V10.77a4.35 4.35 0 0 1 7.43-3 4.3 4.3 0 0 1 1.26 3.05v30.61a2.16 2.16 0 0 0 .81 1.68 8.15 8.15 0 0 1 3 6.32 7.73 7.73 0 0 1-.24 1.93l3.74-6.48a12.42 12.42 0 0 0-2.93-4.43V10.77a8.71 8.71 0 0 0-8.69-8.69 8.71 8.71 0 0 0-8.72 8.69v29.69a12.49 12.49 0 1 0 18.92 16.12h-5.36z" style="fill:#0095e8"/><path d="M25.9 10.77v25.05h-8.69v-25a4.35 4.35 0 0 1 7.43-3 4.3 4.3 0 0 1 1.26 2.95z" style="fill:#e2e2e2"/><path d="M29.69 49.43a7.73 7.73 0 0 1-.24 1.93l-2.27 3.94a8.13 8.13 0 1 1-10.77-12.17 2.16 2.16 0 0 0 .8-1.69v-5.62h8.69v5.61a2.16 2.16 0 0 0 .81 1.68 8.15 8.15 0 0 1 2.98 6.32z" style="fill:red"/><path style="fill:#fb0" d="M54.94 56.58H26.43l.75-1.28 2.27-3.94 3.74-6.48.37-.64 7.13-12.34 7.12 12.34 7.13 12.34z"/><path d="M39.09 52.54a1.39 1.39 0 0 1 .12-.57 1.31 1.31 0 0 1 .33-.45 1.69 1.69 0 0 1 .5-.31 1.88 1.88 0 0 1 .65-.11 1.83 1.83 0 0 1 .64.11 1.62 1.62 0 0 1 .51.31 1.45 1.45 0 0 1 .33.45 1.56 1.56 0 0 1 0 1.15 1.45 1.45 0 0 1-.33.45 1.44 1.44 0 0 1-.51.3 1.62 1.62 0 0 1-.64.11 1.67 1.67 0 0 1-.65-.11 1.48 1.48 0 0 1-.5-.3 1.31 1.31 0 0 1-.33-.45 1.4 1.4 0 0 1-.12-.58zm2.78-2.64h-2.32l-.37-8.48h3.06z"/></g><g id="Line"><path class="cls-6" d="M27.18 55.3a8.13 8.13 0 1 1-10.77-12.17 2.16 2.16 0 0 0 .8-1.69V10.77a4.35 4.35 0 0 1 7.43-3 4.3 4.3 0 0 1 1.26 3.05v30.61a2.16 2.16 0 0 0 .81 1.68 8.15 8.15 0 0 1 3 6.32 7.73 7.73 0 0 1-.24 1.93l3.74-6.48a12.42 12.42 0 0 0-2.93-4.43V10.77a8.71 8.71 0 0 0-8.69-8.69 8.71 8.71 0 0 0-8.72 8.69v29.69a12.49 12.49 0 1 0 18.92 16.12h-5.36z"/><path class="cls-6" d="M25.9 10.77v25.05h-8.69v-25a4.35 4.35 0 0 1 7.43-3 4.3 4.3 0 0 1 1.26 2.95z"/><path d="M29.69 49.43a7.73 7.73 0 0 1-.24 1.93l-2.27 3.94a8.13 8.13 0 1 1-10.77-12.17 2.16 2.16 0 0 0 .8-1.69v-5.62h8.69v5.61a2.16 2.16 0 0 0 .81 1.68 8.15 8.15 0 0 1 2.98 6.32z" style="stroke-miterlimit:10;stroke:#000;stroke-width:2px;fill:none"/><path class="cls-6" d="M54.94 56.58H26.43l.75-1.28 2.27-3.94 3.74-6.48.37-.64 7.13-12.34 7.12 12.34 7.13 12.34z"/><path d="M39.09 52.54a1.39 1.39 0 0 1 .12-.57 1.31 1.31 0 0 1 .33-.45 1.69 1.69 0 0 1 .5-.31 1.88 1.88 0 0 1 .65-.11 1.83 1.83 0 0 1 .64.11 1.62 1.62 0 0 1 .51.31 1.45 1.45 0 0 1 .33.45 1.56 1.56 0 0 1 0 1.15 1.45 1.45 0 0 1-.33.45 1.44 1.44 0 0 1-.51.3 1.62 1.62 0 0 1-.64.11 1.67 1.67 0 0 1-.65-.11 1.48 1.48 0 0 1-.5-.3 1.31 1.31 0 0 1-.33-.45 1.4 1.4 0 0 1-.12-.58zm2.78-2.64h-2.32l-.37-8.48h3.06z" style="fill:none"/></g><g id="Shadow" style="opacity:.25;mix-blend-mode:multiply"><path d="m42.51 35.05-1.82-3.15-5.13 8.88C33 45 30.8 48.15 29.27 50.29c-1.36 1.89-2.74 3.71-2.09 5 .51 1 2.05 1.27 3.05 1.33q6.14-10.77 12.28-21.57zM14.06 49.43a12.5 12.5 0 0 1 3.79-9V10.77a8.71 8.71 0 0 1 6.23-8.32 8.81 8.81 0 0 0-2.51-.37 8.71 8.71 0 0 0-8.72 8.69v29.69a12.5 12.5 0 0 0 8.72 21.46 12.24 12.24 0 0 0 2.43-.27 12.51 12.51 0 0 1-9.94-12.22z"/></g><g id="Highligth" style="mix-blend-mode:overlay"><path class="cls-11" d="M19 61.65a12 12 0 0 0 2.56.27 12.49 12.49 0 0 0 10.22-5.34h-5A12.5 12.5 0 0 1 19 61.65zM40.69 31.9l-2.5 4.33 4.62 8.01 7.13 12.34h5l-7.13-12.34-7.12-12.34zM28.19 44.88l.37-.64.74 2.68c.24.35.86 1.12 1.57 1.09 1 0 2-1.58 2-3.9a23.7 23.7 0 0 1-2.39-5.4c-1.37-4.58-.93-8.24-.64-11.73a147.81 147.81 0 0 0 .43-16.21 8.71 8.71 0 0 0-8.69-8.69 8.52 8.52 0 0 0-2.49.37 8.72 8.72 0 0 1 6.18 8.32v29.68a12.42 12.42 0 0 1 2.92 4.43z"/></g></g></g></svg>