<?xml version="1.0" encoding="UTF-8"?>
<svg xmlns="http://www.w3.org/2000/svg" xmlns:xlink="http://www.w3.org/1999/xlink" width="2799" height="2819" viewBox="0 0 2799 2819">
<path fill-rule="nonzero" fill="rgb(43.530273%, 62.304688%, 75.78125%)" fill-opacity="1" d="M 2217.308594 1229.769531 L 2243.519531 1219.441406 L 2236.609375 1205.710938 C 2246.570312 1201.378906 2295.300781 1215.539062 2312.75 1217.621094 C 2297.21875 1230.320312 2238.039062 1237.890625 2217.308594 1229.769531 Z M 2217.308594 1229.769531 "/>
<path fill-rule="nonzero" fill="rgb(25.87738%, 47.851562%, 63.084412%)" fill-opacity="1" d="M 1096.410156 2244.472656 C 1200.980469 2228.535156 1263.539062 2372.898438 1198.089844 2467.667969 L 1196.628906 2469.757812 C 1095.929688 2615.28125 862.242188 2508.898438 888.542969 2329.269531 C 893.085938 2306.363281 926.125 2241.015625 914.332031 2295.242188 C 908.792969 2320.707031 906.121094 2351.632812 913.105469 2376.992188 L 917.390625 2392.15625 C 941.472656 2461.894531 1021.308594 2522.433594 1096.75 2493.847656 C 1156.019531 2471.382812 1201.621094 2400.320312 1175.371094 2337.511719 C 1156.890625 2293.292969 1113.601562 2272.554688 1071.871094 2256.101562 C 1079.300781 2250.191406 1087.421875 2247.085938 1096.410156 2244.472656 Z M 1096.410156 2244.472656 "/>
<path fill-rule="nonzero" fill="rgb(25.87738%, 47.851562%, 63.084412%)" fill-opacity="1" d="M 2198.558594 759.441406 C 2220.5 758.238281 2257.21875 758.011719 2270.648438 779.328125 L 2269.898438 781.949219 C 2256.539062 789.230469 2235.589844 786.378906 2220.5 788.210938 C 1947.699219 821.238281 2202.121094 1295.351562 2391.269531 945.800781 C 2398.898438 931.691406 2411.820312 884.351562 2421.128906 917.421875 C 2423.890625 1012.121094 2340.789062 1105.429688 2247.089844 1114.539062 C 2051.5 1133.589844 1959.480469 777.789062 2198.558594 759.441406 Z M 2198.558594 759.441406 "/>
<path fill-rule="nonzero" fill="rgb(25.87738%, 47.851562%, 63.084412%)" fill-opacity="1" d="M 1157 2057.453125 C 1248.921875 2055.308594 1342.460938 2079.160156 1415.71875 2136.734375 C 1557.230469 2247.964844 1588.929688 2487.777344 1472.949219 2627.816406 C 1396.308594 2720.351562 1303.058594 2740.878906 1189.890625 2740.914062 C 1165.339844 2740.917969 1123.390625 2746.027344 1103.460938 2728.222656 C 1088.410156 2714.757812 1108.589844 2687.328125 1124.988281 2684.984375 C 1132.429688 2683.925781 1140.859375 2684.527344 1148.410156 2684.488281 L 1196.578125 2684.269531 C 1266.671875 2683.410156 1341.878906 2670.746094 1397.519531 2625.007812 C 1512.089844 2530.84375 1521.359375 2342.5 1427.640625 2230.53125 C 1305.820312 2067.230469 985.710938 2063.761719 878.359375 2241.589844 C 825.210938 2329.632812 831.328125 2492.046875 910.609375 2562.21875 C 924.597656 2574.59375 940.070312 2583.910156 955.980469 2593.527344 C 981.890625 2609.195312 992.085938 2642.703125 963.480469 2644.144531 C 941.71875 2645.246094 910.710938 2616.753906 895.644531 2602.644531 C 778.816406 2493.214844 785.378906 2286.8125 892.992188 2173.621094 C 962.933594 2100.054688 1055.929688 2059.925781 1157 2057.453125 Z M 1157 2057.453125 "/>
<path fill-rule="nonzero" fill="rgb(25.87738%, 47.851562%, 63.084412%)" fill-opacity="1" d="M 598.515625 0.910156 L 674.238281 1.25 C 778.289062 12.050781 889.539062 66.730469 955.488281 148.898438 C 1093.898438 321.351562 1049.378906 612.898438 842.980469 706.320312 C 807.484375 722.390625 723.585938 745.441406 682.972656 739.410156 C 650.875 734.640625 630.832031 697.261719 669.738281 685.210938 C 683.3125 681.011719 700.898438 681.871094 715.140625 680.550781 C 936.425781 659.96875 1032.449219 406.140625 928.417969 225.53125 C 831.269531 56.859375 578.203125 1.738281 414.175781 99.230469 C 323.527344 153.109375 281.574219 211.890625 331.730469 309.199219 C 372.167969 387.660156 445.0625 449.75 529.082031 476.660156 C 576.796875 487.429688 622.714844 486.421875 665.957031 461.46875 C 709.609375 436.28125 740.734375 369.230469 712.3125 322.339844 L 708.648438 316.378906 C 696.191406 296.570312 674.542969 283.449219 651.996094 278.339844 L 649.453125 277.78125 C 621.328125 271.339844 590.882812 275.03125 571.328125 297.78125 C 532.523438 342.929688 506.519531 298.25 525.484375 268.929688 C 540.238281 246.109375 566.613281 232.199219 592.652344 226.949219 L 594.519531 226.589844 C 658.523438 213.429688 738.25 233.46875 762.566406 300.910156 L 763.375 303.21875 C 807.996094 427.671875 711.742188 520.179688 592.175781 520.058594 C 446.265625 519.929688 307.683594 383.980469 285.433594 243.699219 L 277.777344 288.609375 C 263.421875 420.289062 332.667969 527.359375 445.515625 588.351562 L 473.132812 601.738281 C 479.945312 604.660156 488.765625 607.019531 493.363281 613.070312 L 493.019531 614.898438 C 490.910156 622.179688 484.128906 625.941406 478.160156 629.78125 C 367.066406 601.03125 282.507812 502.121094 254.820312 393.070312 C 240.503906 336.679688 236.53125 228.421875 279.0625 180.328125 L 306.234375 152.53125 C 388.28125 66.671875 478.246094 9.5 598.515625 0.910156 Z M 598.515625 0.910156 "/>
<path fill-rule="nonzero" fill="rgb(25.87738%, 47.851562%, 63.084412%)" fill-opacity="1" d="M 380.699219 1720.410156 L 2164.289062 1766.730469 C 2491.269531 1797.289062 2795.148438 1965.582031 2763.191406 2333.757812 C 2754.769531 2430.746094 2717.578125 2547.535156 2639.671875 2611.984375 C 2622.539062 2626.152344 2621.398438 2621.105469 2614.980469 2643.074219 C 2585.621094 2743.550781 2497.25 2801.351562 2397.058594 2815.039062 L 2388.5 2816.140625 C 2243.75 2832.101562 2053.421875 2750.289062 2037.589844 2588.234375 C 2035.46875 2497.121094 2066.890625 2412.332031 2130.410156 2346.402344 C 2305.78125 2164.386719 2601.800781 2209.058594 2636.101562 2474.058594 C 2638.359375 2491.515625 2638.039062 2509.410156 2638.210938 2526.980469 C 2666.851562 2441.714844 2702.03125 2385.207031 2694.308594 2285.269531 C 2682.871094 2137.53125 2581.929688 2013.320312 2453.839844 1946.335938 C 2251.179688 1840.351562 2023.101562 1856.476562 1801.789062 1856.921875 L 1485.910156 1856.503906 L 1148.128906 1841.457031 L 897.742188 1816.519531 L 576.574219 1773.230469 C 548.800781 1768.488281 389.65625 1749.800781 376.480469 1737.25 C 370.152344 1731.21875 373.5625 1723.328125 380.699219 1720.410156 Z M 2332.808594 2284.296875 C 2250.058594 2292.976562 2175.410156 2334.347656 2122.96875 2399.164062 L 2118.21875 2405.363281 C 2033.839844 2518.003906 2046.910156 2674.542969 2179.640625 2742.183594 C 2128.410156 2659.460938 2141.320312 2551.714844 2228.039062 2498.992188 C 2250.738281 2485.191406 2318.148438 2466.882812 2301.800781 2513.140625 C 2295.039062 2519.550781 2255.839844 2527.414062 2230.148438 2549.207031 C 2198.390625 2579.511719 2174.570312 2627.324219 2187.949219 2671.90625 L 2188.589844 2674.121094 C 2234.449219 2832.101562 2551.121094 2802.941406 2585.03125 2557.648438 L 2585.441406 2554.832031 C 2597.359375 2468.886719 2561.71875 2370.671875 2488.660156 2321.453125 C 2440.230469 2288.828125 2389.140625 2282.5 2332.808594 2284.296875 Z M 2332.808594 2284.296875 "/>
<path fill-rule="nonzero" fill="rgb(25.87738%, 47.851562%, 63.084412%)" fill-opacity="1" d="M 1788.609375 809.480469 C 1830.480469 813 1826.519531 806.859375 1843.941406 771.101562 C 1954.488281 544.128906 2138.53125 418.898438 2390.140625 452.929688 C 2701.351562 495.03125 2861.339844 761.550781 2776.148438 1053.320312 C 2714.820312 1263.371094 2579.769531 1366.5 2376.5 1429.75 L 2328.109375 1443.480469 C 2315.699219 1446.648438 2302.578125 1449.121094 2290.859375 1454.378906 C 2285.839844 1458.378906 2281.128906 1462.191406 2275.429688 1465.199219 L 2272.660156 1463.96875 C 2268.058594 1456.738281 2268.078125 1454.390625 2273.359375 1447.539062 L 2272.75 1446.539062 C 2239.671875 1456.53125 2174 1456.96875 2139.390625 1457.328125 L 1789.828125 1456.859375 C 1774.800781 1456.359375 1760.039062 1453.828125 1745.160156 1453.050781 L 1488.808594 1440.75 L 1205.980469 1415.839844 L 134.558594 1292.011719 C 120.9375 1290 81.625 1288.960938 74.277344 1275.179688 L 75.964844 1273.160156 C 90.121094 1270.570312 105.617188 1272.039062 120.03125 1272.320312 L 473.214844 1290.011719 L 727.703125 1300.910156 L 951.273438 1313.050781 C 1007.480469 1317.230469 1066.320312 1308.140625 1121.921875 1318.480469 L 1118.199219 1316.929688 C 1110.871094 1314.898438 1100.28125 1314.03125 1092.570312 1314 C 1084.851562 1291.898438 1091.890625 1300.371094 1107.949219 1295.488281 C 1077.710938 1298.140625 1047.171875 1296.480469 1016.929688 1294.878906 L 946.785156 1290.730469 L 808.664062 1276.488281 C 792.046875 1273.609375 775.113281 1272.808594 758.371094 1270.859375 L 183.609375 1203.390625 C 153.109375 1201.089844 7.578125 1212.929688 0.597656 1190.949219 L 2.460938 1187.679688 C 49.460938 1163.699219 190.84375 1164.449219 243.453125 1164.480469 L 353.1875 1165.480469 L 782.417969 1204.75 C 788.214844 1206.871094 796.21875 1206.371094 802.527344 1206.820312 L 1497.609375 1244.019531 L 1596.21875 1244.878906 C 1610.570312 1245.140625 1624.820312 1247.578125 1639.269531 1247.878906 L 2015.421875 1247.640625 L 2121.238281 1240.578125 C 2153.210938 1238.011719 2185.988281 1236.300781 2217.308594 1229.011719 C 2238.039062 1237.890625 2297.21875 1230.320312 2312.75 1217.621094 C 2494.628906 1191.5 2632.890625 1059.71875 2633.578125 870.378906 C 2633.878906 787.441406 2605.390625 685.539062 2545.519531 625.589844 C 2460.140625 540.089844 2254.628906 514.070312 2144 543 C 2038.320312 570.621094 1944.480469 650.660156 1893.261719 746.191406 L 1869.109375 796.101562 C 1862.109375 811.878906 1855.480469 836.570312 1843.300781 848.808594 L 1841.03125 848.679688 C 1824.199219 847.011719 1796.570312 822.511719 1786.269531 810.929688 Z M 1788.609375 809.480469 "/>
</svg>
